                                                                        S      1
,,12Hextrude_1 v1,12Hextrude_1 v1,7Hunknown,7Hunknown,32,38,7,99,15,,1.,G      1
2,2HMM,1,0.08,15H20191017.214608,0.01,10000.,14Hmittalanuj2409,7HunknownG      2
,11,0,15H20191017.161320;                                               G      3
     186       1                                                00000000D      1
     186            -141       1       0                               0D      2
     186       2                                                00000000D      3
     186            -141       1       0                               0D      4
     514       3                                                00010000D      5
     514                       1       1                               0D      6
     514       4                                                00010000D      7
     514                       1       1                               0D      8
     510       5                                                00010000D      9
     510            -141       1       1                               0D     10
     510       6                                                00010000D     11
     510            -141       1       1                               0D     12
     510       7                                                00010000D     13
     510            -141       1       1                               0D     14
     510       8                                                00010000D     15
     510            -141       1       1                               0D     16
     510       9                                                00010000D     17
     510            -141       1       1                               0D     18
     510      10                                                00010000D     19
     510            -141       1       1                               0D     20
     510      11                                                00010000D     21
     510            -141       1       1                               0D     22
     510      12                                                00010000D     23
     510            -141       1       1                               0D     24
     510      13                                                00010000D     25
     510            -141       1       1                               0D     26
     510      14                                                00010000D     27
     510            -141       1       1                               0D     28
     510      15                                                00010000D     29
     510            -141       1       1                               0D     30
     510      16                                                00010000D     31
     510            -141       1       1                               0D     32
     508      17                                                00010000D     33
     508                       1       1                               0D     34
     508      18                                                00010000D     35
     508                       1       1                               0D     36
     508      19                                                00010000D     37
     508                       1       1                               0D     38
     508      20                                                00010000D     39
     508                       1       1                               0D     40
     508      21                                                00010000D     41
     508                       1       1                               0D     42
     508      22                                                00010000D     43
     508                       1       1                               0D     44
     508      23                                                00010000D     45
     508                       1       1                               0D     46
     508      24                                                00010000D     47
     508                       1       1                               0D     48
     508      25                                                00010000D     49
     508                       1       1                               0D     50
     508      26                                                00010000D     51
     508                       1       1                               0D     52
     508      27                                                00010000D     53
     508                       1       1                               0D     54
     508      28                                                00010000D     55
     508                       1       1                               0D     56
     126      29                                                00010000D     57
     126       0               2       0                               0D     58
     126      31                                                00010000D     59
     126       0               2       0                               0D     60
     126      33                                                00010000D     61
     126       0               2       0                               0D     62
     126      35                                                00010000D     63
     126       0               2       0                               0D     64
     126      37                                                00010000D     65
     126       0               2       0                               0D     66
     126      39                                                00010000D     67
     126       0               2       0                               0D     68
     126      41                                                00010000D     69
     126       0               2       0                               0D     70
     126      43                                                00010000D     71
     126       0               2       0                               0D     72
     126      45                                                00010000D     73
     126       0               2       0                               0D     74
     126      47                                                00010000D     75
     126       0               2       0                               0D     76
     126      49                                                00010000D     77
     126       0               2       0                               0D     78
     126      51                                                00010000D     79
     126       0               2       0                               0D     80
     126      53                                                00010000D     81
     126       0               2       0                               0D     82
     126      55                                                00010000D     83
     126       0               2       0                               0D     84
     126      57                                                00010000D     85
     126       0               2       0                               0D     86
     126      59                                                00010000D     87
     126       0               2       0                               0D     88
     126      61                                                00010000D     89
     126       0               2       0                               0D     90
     126      63                                                00010000D     91
     126       0               2       0                               0D     92
     126      65                                                00010000D     93
     126       0               2       0                               0D     94
     126      67                                                00010000D     95
     126       0               2       0                               0D     96
     126      69                                                00010000D     97
     126       0               2       0                               0D     98
     126      71                                                00010000D     99
     126       0               2       0                               0D    100
     126      73                                                00010000D    101
     126       0               2       0                               0D    102
     126      75                                                00010000D    103
     126       0               2       0                               0D    104
     128      77                                                00010000D    105
     128       0    -141       3       0                               0D    106
     128      80                                                00010000D    107
     128       0    -141       3       0                               0D    108
     128      83                                                00010000D    109
     128       0    -141       3       0                               0D    110
     128      86                                                00010000D    111
     128       0    -141       4       0                               0D    112
     128      90                                                00010000D    113
     128       0    -141       4       0                               0D    114
     128      94                                                00010000D    115
     128       0    -141       4       0                               0D    116
     128      98                                                00010000D    117
     128       0    -141       3       0                               0D    118
     128     101                                                00010000D    119
     128       0    -141       3       0                               0D    120
     128     104                                                00010000D    121
     128       0    -141       3       0                               0D    122
     128     107                                                00010000D    123
     128       0    -141       4       0                               0D    124
     128     111                                                00010000D    125
     128       0    -141       4       0                               0D    126
     128     115                                                00010000D    127
     128       0    -141       4       0                               0D    128
     502     119                                                00010000D    129
     502                       2       1                               0D    130
     502     121                                                00010000D    131
     502                       2       1                               0D    132
     504     123                                                00010001D    133
     504                       3       1                               0D    134
     504     126                                                00010001D    135
     504                       3       1                               0D    136
     406     129                                                00000000D    137
     406                       1      15                               0D    138
     406     130                                                00000000D    139
     406                       1      15                               0D    140
     314     131                                                00000200D    141
     314                       2       0                               0D    142
186,5,1,0,0,1,137;                                                     1P      1
186,7,1,0,0,1,139;                                                     3P      2
514,6,9,1,11,1,13,1,15,1,17,1,19,1;                                    5P      3
514,6,21,1,23,1,25,1,27,1,29,1,31,1;                                   7P      4
510,105,1,1,33;                                                        9P      5
510,107,1,1,35;                                                       11P      6
510,109,1,1,37;                                                       13P      7
510,111,1,1,39;                                                       15P      8
510,113,1,1,41;                                                       17P      9
510,115,1,1,43;                                                       19P     10
510,117,1,1,45;                                                       21P     11
510,119,1,1,47;                                                       23P     12
510,121,1,1,49;                                                       25P     13
510,123,1,1,51;                                                       27P     14
510,125,1,1,53;                                                       29P     15
510,127,1,1,55;                                                       31P     16
508,4,0,133,1,1,0,0,133,2,1,0,0,133,3,0,0,0,133,4,0,0;                33P     17
508,4,0,133,5,1,0,0,133,4,1,0,0,133,6,0,0,0,133,7,0,0;                35P     18
508,4,0,133,8,1,0,0,133,7,1,0,0,133,9,0,0,0,133,10,0,0;               37P     19
508,4,0,133,11,1,0,0,133,10,1,0,0,133,12,0,0,0,133,2,0,0;             39P     20
508,4,0,133,12,1,0,0,133,9,1,0,0,133,6,1,0,0,133,3,1,0;               41P     21
508,4,0,133,11,0,0,0,133,1,0,0,0,133,5,0,0,0,133,8,0,0;               43P     22
508,4,0,135,1,1,0,0,135,2,1,0,0,135,3,0,0,0,135,4,0,0;                45P     23
508,4,0,135,5,1,0,0,135,4,1,0,0,135,6,0,0,0,135,7,0,0;                47P     24
508,4,0,135,8,1,0,0,135,7,1,0,0,135,9,0,0,0,135,10,0,0;               49P     25
508,4,0,135,11,1,0,0,135,10,1,0,0,135,12,0,0,0,135,2,0,0;             51P     26
508,4,0,135,12,1,0,0,135,9,1,0,0,135,6,1,0,0,135,3,1,0;               53P     27
508,4,0,135,11,0,0,0,135,1,0,0,0,135,5,0,0,0,135,8,0,0;               55P     28
126,1,1,0,0,1,0,0.,0.,0.2,0.2,1.,1.,2.,500.,0.,0.,500.,0.,0.,         57P     29
0.2,0.,0.,0.;                                                         57P     30
126,1,1,0,0,1,0,0.,0.,50.,50.,1.,1.,0.,500.,0.,0.,500.,500.,0.,       59P     31
50.,0.,0.,0.;                                                         59P     32
126,1,1,0,0,1,0,0.,0.,0.2,0.2,1.,1.,2.,500.,500.,0.,500.,500.,        61P     33
0.,0.2,0.,0.,0.;                                                      61P     34
126,1,1,0,0,1,0,0.,0.,50.,50.,1.,1.,2.,500.,0.,2.,500.,500.,0.,       63P     35
50.,0.,0.,0.;                                                         63P     36
126,1,1,0,0,1,0,0.,0.,50.,50.,1.,1.,2.,0.,0.,2.,500.,0.,0.,50.,       65P     37
0.,0.,0.;                                                             65P     38
126,1,1,0,0,1,0,0.,0.,50.,50.,1.,1.,2.,0.,500.,2.,500.,500.,0.,       67P     39
50.,0.,0.,0.;                                                         67P     40
126,1,1,0,0,1,0,0.,0.,50.,50.,1.,1.,2.,0.,0.,2.,0.,500.,0.,50.,       69P     41
0.,0.,0.;                                                             69P     42
126,1,1,0,0,1,0,0.,0.,0.2,0.2,1.,1.,0.,0.,0.,2.,0.,0.,0.,0.2,0.,      71P     43
0.,0.;                                                                71P     44
126,1,1,0,0,1,0,0.,0.,0.2,0.2,1.,1.,0.,0.,500.,2.,0.,500.,0.,         73P     45
0.2,0.,0.,0.;                                                         73P     46
126,1,1,0,0,1,0,0.,0.,50.,50.,1.,1.,0.,0.,0.,0.,0.,500.,0.,50.,       75P     47
0.,0.,0.;                                                             75P     48
126,1,1,0,0,1,0,0.,0.,50.,50.,1.,1.,0.,500.,0.,0.,0.,0.,0.,50.,       77P     49
0.,0.,0.;                                                             77P     50
126,1,1,0,0,1,0,0.,0.,50.,50.,1.,1.,0.,500.,500.,0.,0.,500.,0.,       79P     51
50.,0.,0.,0.;                                                         79P     52
126,1,1,0,0,1,0,0.,0.,0.2,0.2,1.,1.,29.,500.,0.,27.,500.,0.,0.,       81P     53
0.2,0.,0.,0.;                                                         81P     54
126,1,1,0,0,1,0,0.,0.,50.,50.,1.,1.,27.,500.,0.,27.,500.,500.,        83P     55
0.,50.,0.,0.,0.;                                                      83P     56
126,1,1,0,0,1,0,0.,0.,0.2,0.2,1.,1.,29.,500.,500.,27.,500.,500.,      85P     57
0.,0.2,0.,0.,0.;                                                      85P     58
126,1,1,0,0,1,0,0.,0.,50.,50.,1.,1.,29.,500.,0.,29.,500.,500.,        87P     59
0.,50.,0.,0.,0.;                                                      87P     60
126,1,1,0,0,1,0,0.,0.,50.,50.,1.,1.,29.,0.,0.,29.,500.,0.,0.,         89P     61
50.,0.,0.,0.;                                                         89P     62
126,1,1,0,0,1,0,0.,0.,50.,50.,1.,1.,29.,0.,500.,29.,500.,500.,        91P     63
0.,50.,0.,0.,0.;                                                      91P     64
126,1,1,0,0,1,0,0.,0.,50.,50.,1.,1.,29.,0.,0.,29.,0.,500.,0.,         93P     65
50.,0.,0.,0.;                                                         93P     66
126,1,1,0,0,1,0,0.,0.,0.2,0.2,1.,1.,27.,0.,0.,29.,0.,0.,0.,0.2,       95P     67
0.,0.,0.;                                                             95P     68
126,1,1,0,0,1,0,0.,0.,0.2,0.2,1.,1.,27.,0.,500.,29.,0.,500.,0.,       97P     69
0.2,0.,0.,0.;                                                         97P     70
126,1,1,0,0,1,0,0.,0.,50.,50.,1.,1.,27.,0.,0.,27.,0.,500.,0.,         99P     71
50.,0.,0.,0.;                                                         99P     72
126,1,1,0,0,1,0,0.,0.,50.,50.,1.,1.,27.,500.,0.,27.,0.,0.,0.,        101P     73
50.,0.,0.,0.;                                                        101P     74
126,1,1,0,0,1,0,0.,0.,50.,50.,1.,1.,27.,500.,500.,27.,0.,500.,       103P     75
0.,50.,0.,0.,0.;                                                     103P     76
128,1,1,1,1,0,0,1,0,0,-0.001,-0.001,0.201,0.201,-0.001,-0.001,       105P     77
50.001,50.001,1.,1.,1.,1.,2.01,500.,-0.01,-0.01,500.,-0.01,2.01,     105P     78
500.,500.01,-0.01,500.,500.01,-0.001,0.201,-0.001,50.001;            105P     79
128,1,1,1,1,0,0,1,0,0,-0.001,-0.001,50.001,50.001,-0.001,-0.001,     107P     80
50.001,50.001,1.,1.,1.,1.,2.,-0.01,-0.01,2.,500.01,-0.01,2.,         107P     81
-0.01,500.01,2.,500.01,500.01,-0.001,50.001,-0.001,50.001;           107P     82
128,1,1,1,1,0,0,1,0,0,-0.001,-0.001,0.201,0.201,-0.001,-0.001,       109P     83
50.001,50.001,1.,1.,1.,1.,-0.01,0.,-0.01,2.01,0.,-0.01,-0.01,0.,     109P     84
500.01,2.01,0.,500.01,-0.001,0.201,-0.001,50.001;                    109P     85
128,1,1,1,1,0,0,1,0,0,-0.001,-0.001,50.001,50.001,-0.001,-0.001,     111P     86
50.001,50.001,1.,1.,1.,1.,0.,500.01,-0.01,0.,                        111P     87
-0.00999999999997669,-0.01,0.,500.01,500.01,0.,                      111P     88
-0.00999999999997669,500.01,-0.001,50.001,-0.001,50.001;             111P     89
128,1,1,1,1,0,0,1,0,0,-0.101,-0.101,0.101,0.101,-25.001,-25.001,     113P     90
25.001,25.001,1.,1.,1.,1.,-0.01,-0.0100000000000122,500.,2.01,       113P     91
-0.0100000000000122,500.,-0.01,500.01,500.,2.01,500.01,500.,         113P     92
-0.101,0.101,-25.001,25.001;                                         113P     93
128,1,1,1,1,0,0,1,0,0,-0.101,-0.101,0.101,0.101,-25.001,-25.001,     115P     94
25.001,25.001,1.,1.,1.,1.,2.01,-0.0100000000000122,0.,-0.01,         115P     95
-0.0100000000000122,0.,2.01,500.01,0.,-0.01,500.01,0.,-0.101,        115P     96
0.101,-25.001,25.001;                                                115P     97
128,1,1,1,1,0,0,1,0,0,-0.001,-0.001,0.201,0.201,-0.001,-0.001,       117P     98
50.001,50.001,1.,1.,1.,1.,29.01,500.,-0.01,26.99,500.,-0.01,         117P     99
29.01,500.,500.01,26.99,500.,500.01,-0.001,0.201,-0.001,50.001;      117P    100
128,1,1,1,1,0,0,1,0,0,-0.001,-0.001,50.001,50.001,-0.001,-0.001,     119P    101
50.001,50.001,1.,1.,1.,1.,29.,-0.01,-0.01,29.,500.01,-0.01,29.,      119P    102
-0.01,500.01,29.,500.01,500.01,-0.001,50.001,-0.001,50.001;          119P    103
128,1,1,1,1,0,0,1,0,0,-0.001,-0.001,0.201,0.201,-0.001,-0.001,       121P    104
50.001,50.001,1.,1.,1.,1.,26.99,0.,-0.01,29.01,0.,-0.01,26.99,       121P    105
0.,500.01,29.01,0.,500.01,-0.001,0.201,-0.001,50.001;                121P    106
128,1,1,1,1,0,0,1,0,0,-0.001,-0.001,50.001,50.001,-0.001,-0.001,     123P    107
50.001,50.001,1.,1.,1.,1.,27.,500.01,-0.01,27.,                      123P    108
-0.00999999999997669,-0.01,27.,500.01,500.01,27.,                    123P    109
-0.00999999999997669,500.01,-0.001,50.001,-0.001,50.001;             123P    110
128,1,1,1,1,0,0,1,0,0,-0.101,-0.101,0.101,0.101,-25.001,-25.001,     125P    111
25.001,25.001,1.,1.,1.,1.,26.99,-0.0100000000000122,500.,29.01,      125P    112
-0.0100000000000122,500.,26.99,500.01,500.,29.01,500.01,500.,        125P    113
-0.101,0.101,-25.001,25.001;                                         125P    114
128,1,1,1,1,0,0,1,0,0,-0.101,-0.101,0.101,0.101,-25.001,-25.001,     127P    115
25.001,25.001,1.,1.,1.,1.,29.01,-0.0100000000000122,0.,26.99,        127P    116
-0.0100000000000122,0.,29.01,500.01,0.,26.99,500.01,0.,-0.101,       127P    117
0.101,-25.001,25.001;                                                127P    118
502,8,2.,500.,0.,0.,500.,0.,0.,500.,500.,2.,500.,500.,2.,0.,0.,      129P    119
2.,0.,500.,0.,0.,0.,0.,0.,500.;                                      129P    120
502,8,29.,500.,0.,27.,500.,0.,27.,500.,500.,29.,500.,500.,29.,       131P    121
0.,0.,29.,0.,500.,27.,0.,0.,27.,0.,500.;                             131P    122
504,12,57,129,1,129,2,59,129,2,129,3,61,129,4,129,3,63,129,1,        133P    123
129,4,65,129,5,129,1,67,129,6,129,4,69,129,5,129,6,71,129,7,129,     133P    124
5,73,129,8,129,6,75,129,7,129,8,77,129,2,129,7,79,129,3,129,8;       133P    125
504,12,81,131,1,131,2,83,131,2,131,3,85,131,4,131,3,87,131,1,        135P    126
131,4,89,131,5,131,1,91,131,6,131,4,93,131,5,131,6,95,131,7,131,     135P    127
5,97,131,8,131,6,99,131,7,131,8,101,131,2,131,7,103,131,3,131,8;     135P    128
406,1,5HBody1;                                                       137P    129
406,1,5HBody2;                                                       139P    130
314,62.7450980392157,62.7450980392157,62.7450980392157,13HSteel      141P    131
- Satin;                                                             141P    132
S      1G      3D    142P    132                                        T      1
